# xmcd CD database file generated by OrangeCD 6.4
#
# Track frame offsets:
#	150
#	14125
#	34778
#	46351
#	63994
#	78627
#	92256
#	109988
#	125908
#	143545
#
# Disc length: 2142 seconds
#
# Revision: 0
# Processed by: cddbd v1.5.2PL0 Copyright (c) Steve Scherf et al.
# Submitted via: OrangeCD 6.4
#
DISCID=87085c0a
DTITLE=Limboski - Farewell devil
DYEAR=1900
DGENRE=
TTITLE0=Crow Jane
TTITLE1=Catfish Blues
TTITLE2=Pol na pol
TTITLE3=Hellhounds on my trail
TTITLE4=Lassi Mango
TTITLE5=Milcow's Calf Blues
TTITLE6=Hard Times
TTITLE7=Fatewell Devil
TTITLE8=Evening Sketch
TTITLE9=Dziewczyna z Ameryki
EXTD=
EXTT0=
EXTT1=
EXTT2=
EXTT3=
EXTT4=
EXTT5=
EXTT6=
EXTT7=
EXTT8=
EXTT9=
PLAYORDER=
